<svg xmlns="http://www.w3.org/2000/svg" viewBox="0 0 24 30"><g fill-rule="evenodd"><path fill="#c1dff5" d="M11.694 11.297c6.46 0 11.695 5.24 11.695 11.706 0 2.314-.67 4.471-1.828 6.288H1.828A11.66 11.66 0 0 1 0 23.003c0-6.465 5.236-11.706 11.694-11.706"/><path fill="#fbf783" d="M12.444 16.916c3.622 0 6.576-2.957 6.576-6.583 0-3.626-2.954-6.584-6.576-6.584-3.623 0-6.577 2.958-6.577 6.584 0 3.626 2.954 6.583 6.577 6.583"/><path fill="#7e2b1a" d="m9.206 25.086.93-1.39a14.262 14.262 0 0 0 .561-14.938l.782-.448.565.807a16.886 16.886 0 0 1-.765 20.371l-2.073-4.402"/><path fill="#512015" d="M12.193 12.638a14.264 14.264 0 0 0-.432-1.519l1.17-.59c.326.58.614 1.172.866 1.776zm.338 2.63c-.01-.295-.03-.59-.058-.884l2.021-.05c.095.344.178.69.25 1.039zm-.482 4.215c.114-.423.208-.85.283-1.28l2.699-.865c.053.62.073 1.242.058 1.862zm-1.54 3.622c.296-.492.56-.998.79-1.515l3.522.234a16.88 16.88 0 0 1-.273 1.235l-4.038.046"/><path fill="#a33b1f" d="m9.206 25.086.93-1.39a14.262 14.262 0 0 0 .561-14.938l.175-.1.27.466c3.255 5.604 2.806 12.66-.934 18.09l-1.002-2.128"/><path fill="#7e2b1a" d="M12.193 12.638a14.264 14.264 0 0 0-.432-1.519l.299-.15c.217.518.406 1.045.567 1.579zm.338 2.63c-.01-.295-.03-.59-.058-.884l.59-.015c.056.31.103.62.14.931zm-.482 4.215c.114-.423.208-.85.283-1.28l.981-.315c-.017.497-.056.993-.116 1.488zm-1.54 3.622c.296-.492.56-.998.79-1.515l1.453.096c-.124.47-.269.937-.433 1.399l-1.81.02"/><path fill="#fbca07" d="M11.694 24.451c4.93 0 9.105 2.27 10.54 5.41H1.155c1.436-3.14 5.612-5.41 10.54-5.41"/><path fill="#f39c0f" d="M13.361 25.567c3.913 0 7.228 1.802 8.367 4.293H4.994c1.14-2.491 4.455-4.293 8.367-4.293"/><path fill="#532516" d="M11.91 10.173c.716 0 1.3-.585 1.3-1.302 0-.716-.584-1.3-1.3-1.3-.716 0-1.3.584-1.3 1.3 0 .717.584 1.302 1.3 1.302"/><path fill="#559d33" d="M11.48 8.31c.84-.825 1.86-1.34 2.982-1.491l.141.751.332-.793c.939-.04 1.938.167 2.955.652l-.527.881.806-.741a5.858 5.858 0 0 1 1.86 1.476l-.193.615.422-.326a5.872 5.872 0 0 1 1.138 3.214 12.822 12.822 0 0 0-1.208-1.012l.188-.713-.53.468a16.783 16.783 0 0 0-1.567-.968l.34-.663-.748.447a18.552 18.552 0 0 0-2.431-1.036l.26-.445-.483.37c-1.341-.44-2.645-.686-3.738-.686"/><path fill="#559d33" d="M11.48 8.31V7.275a3.19 3.19 0 0 0-.718-2.016l-.758.225.545-.461a3.184 3.184 0 0 0-.663-.51 3.298 3.298 0 0 1-.882-.743l-.646.385.395-.728a3.304 3.304 0 0 1-.513-1.611l-.625-.143.621-.004A3.307 3.307 0 0 1 8.678 0L8.11.344a3.338 3.338 0 0 0-1.484 1.944l.66.086-.739.264a3.08 3.08 0 0 0 .387 2.1l.007.012.456-.12-.311.336c.409.552.976.882 1.573 1.161l.594-.55-.238.71c1.02.45 2.049.848 2.465 2.023m0 0-.934-.223a5.297 5.297 0 0 0-2.019-.088l.185.311-.532-.247c-1.1.24-2.11.827-2.865 1.69l.732.42-.979-.116a5.316 5.316 0 0 0-1.056 2.816l.649.172-.663.267a5.316 5.316 0 0 0 1.455 3.604c.033-1.177.13-2.226.337-3.157l-.842-.257.925-.088c.207-.795.503-1.501.921-2.125l-1.103-.584 1.413.164A6.262 6.262 0 0 1 8.67 9.503l-.624-.632 1.032.394c.674-.37 1.467-.686 2.401-.955"/><path fill="#559d33" d="m11.376 8.336-1.206-.925a5.606 5.606 0 0 0-2.933-1.163l-.01.524-.462-.546a6.033 6.033 0 0 0-2.222.425l.126.92-.651-.689a7.685 7.685 0 0 0-1.971 1.41l.242.444-.476-.209A9.414 9.414 0 0 0 .718 9.933c.884.09 1.61.071 2.221-.02l-.152-.577.814.44a5.508 5.508 0 0 0 1.746-.826l-.272-.688.688.389c.574-.426 1.086-.833 1.788-1.014l-.096-.405.534.326c.796-.085 1.837.103 3.387.778m.193-.026.034-1.394c.032-1.286.48-2.228 1.23-2.788l.468.291-.19-.473a3.344 3.344 0 0 1 1.45-.414l.301.574.039-.584a6.21 6.21 0 0 1 1.773.299l-.073.564.207-.521c.576.188 1.183.456 1.811.807a5.472 5.472 0 0 1-.424.442l-.414-.325.196.514c-.5.407-.982.608-1.443.69l-.448-.97.034 1.014c-.572.024-1.111-.099-1.615-.181l-.131-.912-.103.877c-.492-.064-.95-.059-1.373.205l-.22-.837.012.993c-.41.357-.785 1.003-1.12 2.13"/><path fill="#559d33" d="M11.279 8.262c-.766.526-1.465.98-1.92 1.627l.475.103-.64.16c-.233.424-.37.93-.37 1.58 0 .157.013.316.036.473l.603-.131-.565.337a3.58 3.58 0 0 0 .682 1.456l.575-.103-.365.345c.526.55 1.233.902 2.034.867a4.105 4.105 0 0 1-.914-1.491l-.586-.076.512-.157a5.147 5.147 0 0 1-.19-1.206l-.812-.2.807-.016a7.542 7.542 0 0 1 .043-.857l-.714-.243.745-.021c.117-.866.35-1.708.564-2.447"/><path fill="#2d1813" d="M11.134 10.46c.716 0 1.3-.585 1.3-1.301 0-.717-.584-1.301-1.3-1.301-.716 0-1.3.584-1.3 1.3 0 .717.584 1.302 1.3 1.302"/><path fill="#fff" d="M3.733 19.498c.203-.583.617-.705 1.132-.223-.062-.916.175-1.525 1.043-1.417-.669-.347-1.267-.005-1.285.865-.392-.296-.835-.083-.89.775m2.775-.638c.222-.64.675-.772 1.24-.245-.068-1.003.191-1.67 1.142-1.552-.732-.38-1.388-.006-1.407.947-.43-.324-.915-.09-.975.85"/></g></svg>